<svg fill="#228BE6" xmlns="http://www.w3.org/2000/svg"  viewBox="0 0 48 48" width="24px" height="24px"><path d="M44,17c-0.79-1.82-2.94-2-4.92-2H36v3c0,4.14-3.36,7.5-7.5,7.5h-9c-2.48,0-4.5,2.02-4.5,4.5v9.08c0,1.98,0.18,4.13,2,4.92 c1.59,0.69,4.68,1,7,1s5.41-0.31,7-1c1.82-0.79,2-2.94,2-4.92V36h-7.5c-0.83,0-1.5-0.67-1.5-1.5c0-0.83,0.67-1.5,1.5-1.5h13.58 c1.98,0,4.13-0.18,4.92-2c0.69-1.59,1-4.68,1-7S44.69,18.59,44,17z M27.5,39c0.83,0,1.5,0.67,1.5,1.5c0,0.83-0.67,1.5-1.5,1.5 S26,41.33,26,40.5C26,39.67,26.67,39,27.5,39z M28.5,22.5c2.48,0,4.5-2.02,4.5-4.5V8.92c0-1.98-0.18-4.13-2-4.92 c-1.59-0.69-4.68-1-7-1s-5.41,0.31-7,1c-1.82,0.79-2,2.94-2,4.92V12h7.5c0.83,0,1.5,0.67,1.5,1.5c0,0.83-0.67,1.5-1.5,1.5H8.92 C6.94,15,4.79,15.18,4,17c-0.69,1.59-1,4.68-1,7s0.31,5.41,1,7c0.79,1.82,2.94,2,4.92,2H12v-3c0-4.14,3.36-7.5,7.5-7.5H28.5z M19.5,9C18.67,9,18,8.33,18,7.5C18,6.67,18.67,6,19.5,6S21,6.67,21,7.5C21,8.33,20.33,9,19.5,9z"/></svg>